<svg width="125" height="66" viewBox="0 0 125 66" fill="none" xmlns="http://www.w3.org/2000/svg">
<g clip-path="url(#clip0_439_1529)">
<path d="M116.667 65.9945H8.33333C6.1232 65.9945 4.00358 65.2991 2.44078 64.0614C0.877974 62.8237 0 61.1449 0 59.3945L0 31.6305H6.00347L7.35764 29.0345H10.3889L11.7396 31.6195H23.5521V29.6532L24.6076 31.6333H30.7396L31.7951 29.6203V31.6278H61.1458V27.3818H61.7014C62.0972 27.3927 62.2118 27.4202 62.2118 27.9428V31.6333H77.3958V30.646C78.9479 31.2703 80.7778 31.636 82.7188 31.636L83.0486 31.6333H83.0312H89.4201L90.7882 29.0482H93.8195L95.1563 31.6333H107.469V29.1748L109.33 31.6333H119.177V15.3973H109.431V17.314L108.066 15.3973H98.0451V17.314L96.7917 15.3973H83.2604C81.2103 15.3152 79.1677 15.6493 77.3264 16.368L77.3993 16.3433V15.3973H68.066V16.3433C66.9362 15.638 65.5094 15.3007 64.0764 15.4H64.0972H29.9896L27.7014 19.5938L25.3507 15.4H14.6076V17.3167L13.4236 15.4H4.25694L0.0104167 23.1V6.6C0.0104167 4.84957 0.88839 3.17084 2.45119 1.9331C4.014 0.695355 6.13361 0 8.34375 0H116.677C118.887 0 121.007 0.695355 122.57 1.9331C124.132 3.17084 125.01 4.84957 125.01 6.6V35.42H118.507C118.403 35.4145 118.278 35.4145 118.156 35.4145C116.649 35.4145 115.25 35.772 114.083 36.3853L114.111 36.3715V35.42H104.493C102.99 35.3542 101.504 35.6924 100.274 36.3797L100.295 36.3688V35.4172H83.1215V36.3688C81.7157 35.7408 80.1279 35.4129 78.5139 35.4172H78.3785H78.3854H67.0556V36.3688C65.5753 35.6178 63.8189 35.2836 62.0694 35.42L62.1007 35.4172H49.4236L46.5208 37.9033L43.8056 35.4172H24.8681V51.6642H43.4514L46.441 49.1397L49.2569 51.6642H60.7118V47.861H62.309C63.8448 47.9085 65.3766 47.7054 66.809 47.2642L66.7326 47.2862V51.6698H76.1771V47.4375H76.6319C77.2083 47.4375 77.2674 47.454 77.2674 47.916V51.6725H105.969L106.319 51.678C107.965 51.678 109.5 51.2875 110.778 50.6192L110.747 50.633V51.6725H119.851L120.285 51.678C121.99 51.678 123.611 51.4002 125.083 50.897L125.003 50.9217V59.3972C125.003 61.1477 124.126 62.8264 122.563 64.0641C121 65.3019 118.88 65.9972 116.67 65.9972L116.667 65.9945ZM73.2812 49.3872H69.7465V37.741H77.8576C79.3226 37.6335 80.7977 37.8286 82.1389 38.3075L82.0833 38.291C83.1701 38.764 83.8958 39.666 83.8958 40.7L83.8889 40.8843V40.876L83.8924 40.9805C83.8924 42.317 82.875 43.4665 81.4167 43.967L81.3889 43.9753C82.0868 44.1733 82.6701 44.5115 83.1042 44.9487L83.1111 44.9543C83.6013 45.597 83.8066 46.3509 83.6945 47.0965L83.6979 47.08V49.3845H80.1701V47.927C80.3372 47.1335 80.1361 46.3188 79.6042 45.6335L79.6146 45.6472C79.2481 45.4269 78.8289 45.2677 78.3825 45.1793C77.9361 45.0909 77.4717 45.0752 77.0174 45.133L77.0382 45.1302H73.2812V49.3845V49.3872ZM73.2812 40.1473V42.7625H77.5521C78.1552 42.8066 78.7621 42.7211 79.309 42.515L79.2882 42.5233C79.5116 42.409 79.6954 42.2522 79.8228 42.0673C79.9501 41.8824 80.017 41.6751 80.0174 41.4645L80.0139 41.4013C80.0311 41.1911 79.9727 40.9841 79.8455 40.7991C79.7183 40.6141 79.5275 40.4615 79.2951 40.359L79.2882 40.3563C78.7612 40.1696 78.1824 40.0938 77.6076 40.1362H77.6215L73.2812 40.1473ZM41.9444 49.3845H28.0312V37.741H42.1632L46.4861 41.558L50.9549 37.741H62.1806C66.1667 37.741 68.1042 38.9977 68.1042 41.5773C68.1042 44.2035 66.1007 45.4795 61.9931 45.4795H57.6007V49.3817H50.7708L46.4444 45.5345L41.9444 49.3845ZM54.1007 38.9895L48.7049 43.582L54.1007 48.323V38.9895ZM31.5347 44.6408V46.9562H40.1736L44.1667 43.5407L40.3264 40.1473H31.5313V42.2648H39.2465V44.638L31.5347 44.6408ZM57.6007 40.15V43.1145H62.1389C63.5278 43.1145 64.3264 42.5535 64.3264 41.5745C64.3264 40.6395 63.5833 40.1473 62.1771 40.1473L57.6007 40.15ZM120.233 49.39H113.448V46.8875H120.205C120.71 46.9427 121.223 46.838 121.632 46.596L121.628 46.5987C121.759 46.5029 121.863 46.3867 121.934 46.2575C122.005 46.1284 122.042 45.9889 122.042 45.848V45.804C122.042 45.6648 122.004 45.5272 121.93 45.4009C121.856 45.2746 121.749 45.1625 121.615 45.0725C121.255 44.8668 120.812 44.7747 120.372 44.814H120.378L119.729 44.7975C116.556 44.7315 112.962 44.6545 112.962 41.2088C112.962 39.5312 114.288 37.741 118 37.741H125.003V40.2215H118.597C118.102 40.1776 117.603 40.2564 117.167 40.447L117.181 40.4415C117.009 40.5309 116.871 40.6551 116.781 40.8013C116.692 40.9474 116.653 41.11 116.67 41.272V41.2692V41.2995C116.67 41.4848 116.744 41.6654 116.881 41.8155C117.018 41.9656 117.212 42.0776 117.434 42.1355L117.441 42.1382C117.881 42.2458 118.342 42.2905 118.802 42.2703H118.792L120.698 42.3088C122.135 42.1952 123.57 42.534 124.694 43.252L124.684 43.2465C124.788 43.3125 124.878 43.384 124.958 43.4638L124.962 43.4665L125.003 47.8995C124.42 48.4399 123.677 48.8583 122.841 49.1177C122.004 49.3772 121.1 49.4697 120.208 49.3872L120.233 49.39ZM106.521 49.39H99.6736V46.8875H106.486C106.996 46.9404 107.512 46.836 107.927 46.596L107.92 46.5987C108.05 46.5026 108.153 46.3863 108.224 46.2571C108.294 46.128 108.33 45.9887 108.33 45.848V45.8205C108.33 45.679 108.292 45.5391 108.218 45.4101C108.144 45.2812 108.037 45.1661 107.903 45.0725C107.537 44.8666 107.088 44.7746 106.642 44.814H106.649L106.003 44.7975C102.84 44.7315 99.25 44.6545 99.25 41.2088C99.25 39.5312 100.569 37.741 104.274 37.741H111.316V40.2215H104.872C104.38 40.1781 103.884 40.2569 103.451 40.447L103.465 40.4415C103.283 40.5409 103.138 40.6775 103.045 40.8368C102.953 40.9961 102.916 41.1723 102.94 41.3467C102.963 41.521 103.046 41.6872 103.179 41.8275C103.311 41.9678 103.49 42.077 103.694 42.1437L103.701 42.1465C104.147 42.2548 104.614 42.2995 105.08 42.2785H105.069L106.962 42.317C108.406 42.2068 109.848 42.546 110.983 43.263L110.972 43.2547C111.354 43.5879 111.644 43.9801 111.824 44.4066C112.005 44.833 112.072 45.2845 112.021 45.7325V45.7188C112.031 48.147 110.174 49.3845 106.51 49.3845L106.521 49.39ZM97.5695 49.39H85.8333V37.7383H97.559V40.1445H89.3403V42.262H97.3681V44.6352H89.3403V46.9507L97.5695 46.9618V49.3817V49.39ZM104.41 29.3535H97.2535L95.8854 26.7575H88.5868L87.2604 29.3535H83.1493C81.3031 29.4306 79.485 28.9699 78.0382 28.0583L78.0556 28.0665C77.3682 27.4657 76.8465 26.758 76.5236 25.9886C76.2008 25.2192 76.084 24.4049 76.1806 23.5978L76.1771 23.6197C76.0877 22.7977 76.2102 21.9699 76.5373 21.1865C76.8644 20.4032 77.3893 19.6807 78.0799 19.063L78.0729 19.0685C78.8021 18.5636 79.6546 18.1829 80.5775 17.9501C81.5004 17.7173 82.474 17.6375 83.4375 17.7155L83.4097 17.7127H86.8125V20.196H83.4792C82.9914 20.1462 82.4958 20.1823 82.0277 20.3016C81.5595 20.4209 81.1304 20.6205 80.7708 20.8863L80.7743 20.8835C80.0319 21.6365 79.6715 22.582 79.7639 23.5345V23.5208C79.6532 24.4994 80.0005 25.4761 80.7396 26.2653L80.7292 26.2542C81.4194 26.701 82.303 26.9162 83.191 26.8538H83.1771H84.7535L89.7222 17.6962H95L100.948 28.6963V17.6962H106.299L112.472 25.8033V17.6962H116.083V29.3342H111.069L104.403 20.5948V29.3342L104.41 29.3535ZM92.2604 19.679L89.8403 24.321H94.691L92.2604 19.679ZM58.2361 29.348H54.7222V17.7045H62.8056C64.2811 17.5832 65.7706 17.7819 67.1146 18.2793L67.0625 18.2628C67.6029 18.4994 68.0534 18.8464 68.3673 19.2676C68.6811 19.6888 68.8468 20.1689 68.8472 20.658L68.8403 20.8505V20.8423V20.9275C68.8405 21.5626 68.6094 22.1843 68.1746 22.718C67.7397 23.2516 67.1197 23.6745 66.3889 23.936L66.3611 23.9443C67.059 24.1532 67.6458 24.4888 68.0938 24.9177L68.1007 24.9232C68.5961 25.5683 68.8005 26.3275 68.6806 27.0765L68.684 27.06V29.3453H65.1389L65.125 27.8768V27.6567C65.2512 26.9387 65.0505 26.2086 64.559 25.597L64.5695 25.6107C64.2017 25.3968 63.784 25.2426 63.3407 25.1572C62.8973 25.0718 62.4369 25.0567 61.9861 25.113L62.0069 25.1103H58.2396V29.3453L58.2361 29.348ZM58.2361 20.1273V22.7122H62.5C63.1023 22.764 63.7108 22.6781 64.2535 22.4647L64.2361 22.4703C64.4585 22.3632 64.6424 22.2126 64.7701 22.0329C64.8978 21.8533 64.965 21.6507 64.9653 21.4445L64.9618 21.3675C64.9795 21.1585 64.9195 20.9528 64.7893 20.7705C64.6591 20.5883 64.4644 20.4402 64.2292 20.3445L64.2222 20.3418C63.6938 20.1622 63.1184 20.0867 62.5451 20.1217H62.5556L58.2361 20.1273ZM21.0278 29.348H13.8889L12.5382 26.752H5.21875L3.85764 29.348H0.0381944L6.33333 17.7045H11.5521L17.5278 28.7237V17.7045H23.2604L27.8576 25.5998L32.0833 17.7045H37.934V29.3425H34.3229L34.316 20.2345L29.2222 29.3453H26.1389L21.0313 20.2208V29.3453L21.0278 29.348ZM8.86111 19.679L6.46875 24.321H11.2674L8.86111 19.679ZM74.4445 29.3453H70.8611V17.7045H74.4479V29.3425L74.4445 29.3453ZM52.2708 29.3453H40.5556V17.7045H52.2917V20.1245H44.0694V22.2228H52.0938V24.6125H44.0625V26.939H52.2847V29.3425L52.2708 29.3453Z" fill="#2C86DA"/>
</g>
<defs>
<clipPath id="clip0_439_1529">
<rect width="125" height="66" fill="white"/>
</clipPath>
</defs>
</svg>
