<svg width="78" height="60" viewBox="0 0 78 60" fill="none" xmlns="http://www.w3.org/2000/svg">
<g clip-path="url(#clip0_439_1183)">
<path d="M14.0342 59.7019V55.7307C14.0342 54.2081 13.1074 53.2155 11.5187 53.2155C10.7246 53.2155 9.86405 53.4802 9.26827 54.3407C8.80516 53.6126 8.14335 53.2155 7.15048 53.2155C6.48837 53.2155 5.82686 53.4139 5.29712 54.1421V53.3479H3.90717V59.7019H5.29712V56.1938C5.29712 55.0689 5.89289 54.5391 6.81973 54.5391C7.74596 54.5391 8.20968 55.1349 8.20968 56.1938V59.7019H9.59963V56.1938C9.59963 55.0689 10.2611 54.5391 11.1216 54.5391C12.0485 54.5391 12.5116 55.1349 12.5116 56.1938V59.7019H14.0342ZM34.6184 53.3479H32.3683V51.4285H30.9783V53.3479H29.7207V54.6052H30.978V57.5177C30.978 58.974 31.5738 59.8342 33.1624 59.8342C33.7582 59.8342 34.4197 59.6358 34.8835 59.3711L34.4861 58.1795C34.089 58.4443 33.6259 58.5106 33.2948 58.5106C32.633 58.5106 32.3683 58.1135 32.3683 57.4514V54.6052H34.6184V53.3479ZM46.4001 53.2152C45.606 53.2152 45.0765 53.6126 44.7455 54.1421V53.3479H43.3555V59.7019H44.7455V56.1278C44.7455 55.0689 45.2086 54.4731 46.0691 54.4731C46.3338 54.4731 46.6649 54.5394 46.9296 54.6055L47.3267 53.2819C47.0619 53.2155 46.6649 53.2155 46.4001 53.2155M28.5955 53.8776C27.9334 53.4142 27.0069 53.2158 26.014 53.2158C24.4257 53.2158 23.3668 54.01 23.3668 55.2676C23.3668 56.3268 24.1609 56.9223 25.5509 57.121L26.2127 57.1873C26.9408 57.3193 27.3379 57.518 27.3379 57.8491C27.3379 58.3122 26.8085 58.6433 25.8816 58.6433C24.9551 58.6433 24.227 58.3122 23.7635 57.9814L23.1017 59.0403C23.8299 59.5698 24.8227 59.8345 25.8153 59.8345C27.6687 59.8345 28.7279 58.9743 28.7279 57.7828C28.7279 56.6575 27.8674 56.0618 26.5434 55.8634L25.8816 55.797C25.2859 55.7307 24.8227 55.5986 24.8227 55.2016C24.8227 54.7381 25.2859 54.4734 26.014 54.4734C26.8085 54.4734 27.6026 54.8042 27.9997 55.0029L28.5955 53.8776ZM65.5287 53.2158C64.7342 53.2158 64.2048 53.6129 63.8737 54.1424V53.3482H62.4838V59.7022H63.8737V56.1281C63.8737 55.0692 64.3371 54.4734 65.1973 54.4734C65.4623 54.4734 65.7934 54.5397 66.0581 54.6058L66.4552 53.2822C66.1905 53.2158 65.7934 53.2158 65.5287 53.2158ZM47.7901 56.5252C47.7901 58.4446 49.1137 59.8345 51.1658 59.8345C52.0923 59.8345 52.7541 59.6361 53.4159 59.1067L52.7541 57.9814C52.2247 58.3785 51.6952 58.5769 51.0994 58.5769C49.9742 58.5769 49.18 57.7828 49.18 56.5252C49.18 55.3339 49.9742 54.5394 51.0994 54.4734C51.6952 54.4734 52.2247 54.6718 52.7541 55.0692L53.4159 53.944C52.7541 53.4142 52.0923 53.2158 51.1658 53.2158C49.1137 53.2158 47.7901 54.6058 47.7901 56.5252ZM60.6307 56.5252V53.3482H59.2407V54.1424C58.7773 53.5469 58.1155 53.2158 57.255 53.2158C55.468 53.2158 54.078 54.6058 54.078 56.5252C54.078 58.4446 55.468 59.8345 57.255 59.8345C58.1815 59.8345 58.8437 59.5038 59.2407 58.908V59.7022H60.6307V56.5252ZM55.534 56.5252C55.534 55.3999 56.2621 54.4734 57.4534 54.4734C58.5786 54.4734 59.3731 55.3339 59.3731 56.5252C59.3731 57.6504 58.5786 58.5769 57.4534 58.5769C56.2621 58.5106 55.534 57.6504 55.534 56.5252ZM38.9209 53.2158C37.0676 53.2158 35.7437 54.5394 35.7437 56.5252C35.7437 58.5109 37.0673 59.8345 38.987 59.8345C39.9135 59.8345 40.8403 59.5698 41.5685 58.9743L40.9064 57.9814C40.3769 58.3785 39.7151 58.6433 39.0533 58.6433C38.1928 58.6433 37.3323 58.2462 37.1336 57.1206H41.8332V56.5915C41.8995 54.5394 40.7083 53.2158 38.9209 53.2158ZM38.9206 54.4071C39.7808 54.4071 40.3769 54.9368 40.509 55.9297H37.1996C37.332 55.0692 37.9278 54.4071 38.9206 54.4071ZM73.4047 56.5252V50.833H72.0147V54.1424C71.5513 53.5469 70.8895 53.2158 70.029 53.2158C68.2419 53.2158 66.852 54.6058 66.852 56.5252C66.852 58.4446 68.2419 59.8345 70.029 59.8345C70.9558 59.8345 71.6176 59.5038 72.0147 58.908V59.7022H73.4047V56.5252ZM68.3083 56.5252C68.3083 55.3999 69.0361 54.4734 70.2277 54.4734C71.3529 54.4734 72.1471 55.3339 72.1471 56.5252C72.1471 57.6504 71.3529 58.5769 70.2277 58.5769C69.0361 58.5106 68.3083 57.6504 68.3083 56.5252ZM21.8439 56.5252V53.3482H20.4539V54.1424C19.9905 53.5469 19.3287 53.2158 18.4682 53.2158C16.6811 53.2158 15.2912 54.6058 15.2912 56.5252C15.2912 58.4446 16.6811 59.8345 18.4682 59.8345C19.395 59.8345 20.0568 59.5038 20.4539 58.908V59.7022H21.8439V56.5252ZM16.6811 56.5252C16.6811 55.3999 17.4093 54.4734 18.6005 54.4734C19.7258 54.4734 20.5202 55.3339 20.5202 56.5252C20.5202 57.6504 19.7258 58.5769 18.6005 58.5769C17.4093 58.5106 16.6811 57.6504 16.6811 56.5252Z" fill="black"/>
<path d="M28.1321 5.09644H48.9813V42.5591H28.1321V5.09644Z" fill="#FF5F00"/>
<path d="M29.456 23.8278C29.456 16.2163 33.0301 9.46492 38.5236 5.09638C34.4864 1.9194 29.39 0 23.8302 0C10.6582 0 0.00204468 10.6562 0.00204468 23.8278C0.00204468 36.9992 10.6582 47.6557 23.8299 47.6557C29.3897 47.6557 34.4861 45.7363 38.5236 42.559C33.0301 38.2568 29.456 31.4394 29.456 23.8278Z" fill="#EB001B"/>
<path d="M77.1114 23.8278C77.1114 36.9992 66.4552 47.6557 53.2835 47.6557C47.7237 47.6557 42.6274 45.7363 38.5899 42.559C44.1497 38.1908 47.6577 31.4394 47.6577 23.8278C47.6577 16.2163 44.0833 9.46492 38.5899 5.09638C42.6271 1.9194 47.7237 0 53.2835 0C66.4552 0 77.1114 10.7225 77.1114 23.8278Z" fill="#F79E1B"/>
</g>
<defs>
<clipPath id="clip0_439_1183">
<rect width="77.19" height="60" fill="white"/>
</clipPath>
</defs>
</svg>
