<svg width="124" height="40" viewBox="0 0 124 40" fill="none" xmlns="http://www.w3.org/2000/svg">
<g clip-path="url(#clip0_439_1171)">
<path d="M63.809 12.7363C63.7387 18.2862 68.7551 21.3831 72.5338 23.2245C76.4163 25.1137 77.7203 26.3253 77.7049 28.0149C77.676 30.6004 74.6081 31.7417 71.7372 31.786C66.7285 31.8636 63.8162 30.4337 61.5011 29.3523L59.6967 37.7951C62.0196 38.8655 66.3208 39.799 70.7811 39.84C81.2509 39.84 88.1006 34.6718 88.1377 26.6588C88.1787 16.4891 74.0712 15.9262 74.1676 11.3807C74.2008 10.0024 75.516 8.53153 78.3979 8.15756C79.8244 7.96864 83.7623 7.82406 88.2269 9.87996L89.9791 1.71129C87.5782 0.837074 84.4924 -3.43323e-05 80.6505 -3.43323e-05C70.796 -3.43323e-05 63.8649 5.23852 63.809 12.7363ZM106.817 0.703579C104.905 0.703579 103.294 1.81876 102.575 3.53008L87.6191 39.24H98.0813L100.163 33.4862H112.948L114.156 39.24H123.377L115.33 0.703579H106.817ZM108.28 11.1137L111.3 25.5845H103.031L108.28 11.1137ZM51.1242 0.70406L42.8775 39.2395H52.8471L61.09 0.703098L51.1242 0.70406ZM36.3758 0.70406L25.9989 26.933L21.8013 4.63081C21.3088 2.14117 19.3637 0.703579 17.2037 0.703579H0.240825L0.00323486 1.82262C3.48564 2.57828 7.44227 3.79707 9.83938 5.10117C11.3064 5.8978 11.7247 6.59418 12.2066 8.48719L20.157 39.24H30.6924L46.8447 0.703579L36.3758 0.70406Z" fill="url(#paint0_linear_439_1171)"/>
</g>
<defs>
<linearGradient id="paint0_linear_439_1171" x1="5671.98" y1="119.759" x2="5787.3" y2="-3971.87" gradientUnits="userSpaceOnUse">
<stop stop-color="#222357"/>
<stop offset="1" stop-color="#254AA5"/>
</linearGradient>
<clipPath id="clip0_439_1171">
<rect width="123.38" height="40" fill="white"/>
</clipPath>
</defs>
</svg>
